<svg id="Layer_1" data-name="Layer 1" xmlns="http://www.w3.org/2000/svg" viewBox="0 0 1281.99 366.08"><defs><style>.cls-1{font-size:108.43px;font-family:Gotham-Black, Gotham;font-weight:800;}.cls-1,.cls-3{fill:#231f20;}.cls-2{letter-spacing:0em;}.cls-3{font-size:40px;font-family:Gotham-Thin, Gotham;font-weight:200;letter-spacing:0.13em;}.cls-4{letter-spacing:0.1em;}.cls-5{letter-spacing:0.11em;}.cls-6{fill:#0074ff;}.cls-7{fill:none;stroke:#231f20;stroke-miterlimit:10;stroke-width:0.85px;}</style></defs><title>PILLAR_ELECTRIC_BANNER</title><text class="cls-1" transform="translate(245.89 211.71)">PILLAR EL<tspan class="cls-2" x="575.33" y="0">E</tspan><tspan x="647.11" y="0">CTRIC</tspan></text><text class="cls-3" transform="translate(245.89 275.37)">Q<tspan class="cls-4" x="38.84" y="0">U</tspan><tspan x="72.88" y="0">ALITY</tspan></text><text class="cls-3" transform="translate(677.17 275.37)">HONOR</text><text class="cls-3" transform="translate(1079.81 275.37)">TRU<tspan class="cls-5" x="97.8" y="0">S</tspan><tspan x="128.04" y="0">T</tspan></text><path class="cls-6" d="M86.7,244.69h0A8.69,8.69,0,0,1,78,236V120H95.39V236A8.69,8.69,0,0,1,86.7,244.69Z"/><path class="cls-6" d="M126.41,304h0a8.69,8.69,0,0,1-8.69-8.69V120H135.1V295.31A8.69,8.69,0,0,1,126.41,304Z"/><path class="cls-6" d="M166.12,244.69h0a8.69,8.69,0,0,1-8.69-8.69V120h17.38V236A8.69,8.69,0,0,1,166.12,244.69Z"/><rect class="cls-6" x="60.56" y="92.24" width="131.69" height="17.38"/><rect class="cls-6" x="39.45" y="62.08" width="173.91" height="17.38"/><line class="cls-7" x1="494.52" y1="262.37" x2="640.58" y2="262.37"/><line class="cls-7" x1="897.16" y1="262.37" x2="1043.22" y2="262.37"/></svg>