<svg id="Layer_1" data-name="Layer 1" xmlns="http://www.w3.org/2000/svg" viewBox="0 0 1281.99 366.08"><defs><style>.cls-1{fill:#231f20;}.cls-2{fill:#0074ff;}.cls-3{fill:none;stroke:#231f20;stroke-miterlimit:10;stroke-width:0.85px;}</style></defs><title>PILLAR ELECTRIC PHONE LOGO copy</title><path class="cls-1" d="M252.61,135.81h32.53c19.19,0,31.55,9.87,31.55,26.68v.21c0,17.89-13.77,27.33-32.64,27.33h-10.4v21.68h-21Zm31,37.74c7.48,0,12-3.91,12-9.87v-.22c0-6.5-4.56-10-12.15-10h-9.86v20.06Z"/><path class="cls-1" d="M326,135.81h21.14v75.9H326Z"/><path class="cls-1" d="M361,135.81h21v57.47h36.75v18.43H361Z"/><path class="cls-1" d="M427.83,135.81h21v57.47h36.76v18.43h-57.8Z"/><path class="cls-1" d="M520.87,135.27h20.27l32.31,76.44H550.9l-5.53-13.55H516.09l-5.42,13.55H488.55Zm18.43,46.52-8.46-21.58-8.56,21.58Z"/><path class="cls-1" d="M580.83,135.81h35.89c11.6,0,19.62,3,24.72,8.24,4.45,4.34,6.72,10.2,6.72,17.68v.21c0,11.61-6.18,19.3-15.61,23.32l18.11,26.45H626.37l-15.29-23h-9.22v23h-21Zm34.91,36.44c7.16,0,11.28-3.47,11.28-9V163c0-6-4.34-9-11.39-9H601.86v18.22Z"/><path class="cls-1" d="M688.82,135.81h61V153.7H709.64v11.5h36.43v16.59H709.64v12h40.77v17.89H688.82Z"/><path class="cls-1" d="M761.15,135.81h21v57.47h36.76v18.43H761.15Z"/><path class="cls-1" d="M827.94,135.81h61V153.7H848.76v11.5h36.43v16.59H848.76v12h40.77v17.89H827.94Z"/><path class="cls-1" d="M897.12,174v-.22c0-22.12,17-39.46,40-39.46,15.5,0,25.48,6.5,32.2,15.83L953.5,162.38c-4.34-5.42-9.32-8.89-16.59-8.89-10.62,0-18.11,9-18.11,20.06v.21c0,11.39,7.49,20.28,18.11,20.28,7.92,0,12.58-3.69,17.13-9.22l15.83,11.28c-7.15,9.87-16.8,17.13-33.61,17.13C914.58,213.23,897.12,196.64,897.12,174Z"/><path class="cls-1" d="M997.42,154.25H974.65V135.81h66.57v18.44h-22.77v57.46h-21Z"/><path class="cls-1" d="M1050.44,135.81h35.89c11.6,0,19.62,3,24.72,8.24,4.45,4.34,6.72,10.2,6.72,17.68v.21c0,11.61-6.18,19.3-15.61,23.32l18.11,26.45H1096l-15.29-23h-9.22v23h-21Zm34.91,36.44c7.16,0,11.28-3.47,11.28-9V163c0-6-4.34-9-11.39-9h-13.77v18.22Z"/><path class="cls-1" d="M1128.83,135.81H1150v75.9h-21.15Z"/><path class="cls-1" d="M1161.25,174v-.22c0-22.12,17-39.46,40-39.46,15.51,0,25.48,6.5,32.21,15.83l-15.83,12.25c-4.34-5.42-9.33-8.89-16.59-8.89-10.63,0-18.11,9-18.11,20.06v.21c0,11.39,7.48,20.28,18.11,20.28,7.91,0,12.57-3.69,17.13-9.22L1234,196.1c-7.16,9.87-16.81,17.13-33.61,17.13C1178.71,213.23,1161.25,196.64,1161.25,174Z"/><path class="cls-1" d="M276.28,275.74l-4.08-3.56a13.47,13.47,0,0,1-9.48,3.67c-8.47,0-13.91-6.79-13.91-14.43v-.08c0-7.64,5.44-14.44,13.91-14.44s13.92,6.8,13.92,14.44v.08a15.06,15.06,0,0,1-3.84,10.15l4,3.52Zm-4.72-4.13-6.2-5.39.56-.64,6.24,5.44a14.23,14.23,0,0,0,3.6-9.56v-.08c0-7.16-5.28-13.68-13.08-13.68s-13,6.4-13,13.6v.08c0,7.16,5.28,13.67,13.07,13.67A12.52,12.52,0,0,0,271.56,271.61Z"/><path class="cls-1" d="M288.45,263v-15.6h.88V263c0,8,4.28,12,10.47,12s10.4-4,10.4-12V247.38h.88V263c0,8.55-4.56,12.83-11.32,12.83S288.45,271.57,288.45,263Z"/><path class="cls-1" d="M333.72,247.18h.77L348,275.37h-1L343,267H325.17l-4,8.39h-.92Zm8.88,19-8.52-17.84-8.51,17.84Z"/><path class="cls-1" d="M358.77,247.38h.88v27.19h17.19v.8H358.77Z"/><path class="cls-1" d="M387.57,247.38h.88v28h-.88Z"/><path class="cls-1" d="M409.25,248.18H399.13v-.8h21.11v.8H410.12v27.19h-.87Z"/><path class="cls-1" d="M439.2,263.66l-11.83-16.28h1l11.27,15.52,11.16-15.52h1l-11.8,16.28v11.71h-.88Z"/><path class="cls-1" d="M681.33,247.38h.88v13.48h20V247.38h.88v28h-.88V261.66h-20v13.71h-.88Z"/><path class="cls-1" d="M715.33,261.42v-.08c0-7.64,5.44-14.44,13.92-14.44s13.91,6.8,13.91,14.44v.08c0,7.64-5.44,14.43-13.91,14.43S715.33,269.06,715.33,261.42Zm26.95,0v-.08c0-7.16-5.28-13.68-13.07-13.68s-13,6.4-13,13.6v.08c0,7.16,5.28,13.67,13.08,13.67S742.28,268.66,742.28,261.46Z"/><path class="cls-1" d="M755.41,247.38h.76l21.27,26.56V247.38h.84v28h-.76l-21.27-26.55v26.55h-.84Z"/><path class="cls-1" d="M790.53,261.42v-.08c0-7.64,5.44-14.44,13.91-14.44s13.92,6.8,13.92,14.44v.08c0,7.64-5.44,14.43-13.92,14.43S790.53,269.06,790.53,261.42Zm27,0v-.08c0-7.16-5.28-13.68-13.08-13.68s-13,6.4-13,13.6v.08c0,7.16,5.28,13.67,13.07,13.67S817.48,268.66,817.48,261.46Z"/><path class="cls-1" d="M830.61,247.38H842c3.64,0,6.32.92,8,2.64a7.12,7.12,0,0,1,2,5.2v.08c0,4.72-3.76,7.52-9.16,7.84l9.32,12.23h-1.08l-9.28-12.19H831.49v12.19h-.88Zm11,15c6.48,0,9.6-3.08,9.6-7v-.08c0-4.44-3.44-7.08-9.24-7.08H831.49v14.2Z"/><path class="cls-1" d="M1091,248.18h-10.12v-.8H1102v.8h-10.11v27.19H1091Z"/><path class="cls-1" d="M1112.41,247.38h11.44c3.63,0,6.31.92,8,2.64a7.12,7.12,0,0,1,2,5.2v.08c0,4.72-3.76,7.52-9.15,7.84l9.31,12.23H1133l-9.27-12.19h-10.4v12.19h-.88Zm11,15c6.47,0,9.59-3.08,9.59-7v-.08c0-4.44-3.44-7.08-9.23-7.08h-10.48v14.2Z"/><path class="cls-1" d="M1146.09,263v-15.6h.88V263c0,8,4.28,12,10.48,12s10.39-4,10.39-12V247.38h.88V263c0,8.55-4.56,12.83-11.31,12.83S1146.09,271.57,1146.09,263Z"/><path class="cls-1" d="M1180,271.3l.64-.64a14.85,14.85,0,0,0,10.52,4.31c5.24,0,8.59-2.83,8.59-6.59v-.08c0-3.44-2.07-5.28-9.15-6.72-6.92-1.4-9.56-3.44-9.56-7.36v-.08c0-3.92,3.84-7.16,9.12-7.16a15.55,15.55,0,0,1,9.51,3.2l-.56.72a14.92,14.92,0,0,0-9-3.12c-4.92,0-8.16,3-8.16,6.32v.08c0,3.4,2.16,5.2,9,6.6,7.28,1.48,9.67,3.68,9.67,7.48v.08c0,4.15-3.64,7.44-9.55,7.44A15.92,15.92,0,0,1,1180,271.3Z"/><path class="cls-1" d="M1219.05,248.18h-10.12v-.8H1230v.8h-10.11v27.19h-.88Z"/><path class="cls-2" d="M86.7,244.69h0A8.69,8.69,0,0,1,78,236V120H95.39V236A8.69,8.69,0,0,1,86.7,244.69Z"/><path class="cls-2" d="M126.41,304h0a8.69,8.69,0,0,1-8.69-8.69V120H135.1V295.31A8.69,8.69,0,0,1,126.41,304Z"/><path class="cls-2" d="M166.12,244.69h0a8.69,8.69,0,0,1-8.69-8.69V120h17.38V236A8.69,8.69,0,0,1,166.12,244.69Z"/><rect class="cls-2" x="60.56" y="92.24" width="131.69" height="17.38"/><rect class="cls-2" x="39.45" y="62.08" width="173.91" height="17.38"/><line class="cls-3" x1="494.52" y1="262.37" x2="640.58" y2="262.37"/><line class="cls-3" x1="897.16" y1="262.37" x2="1043.22" y2="262.37"/></svg>